# xmcd CD database file
#
# Track frame offsets:
#	150
#	13259
#	25146
#	35421
#	47204
#	59845
#	74046
#	84659
#	97326
#	109447
#	120918
#	133637
#	144042
#	157593
#	171508
#	185111
#
# Disc length: 2628 seconds
#
# Revision: 0
# Processed by: cddbd v1.5.2PL0 Copyright (c) Steve Scherf et al.
# Submitted via: CDex 1.51
#
DISCID=eb0a4210
DTITLE=Ray Charles - The Jazz Biography
DYEAR=2004
DGENRE=Jazz
TTITLE0=Baby Won't You Please Come Home
TTITLE1=The Sun Is Gonna Shine Again
TTITLE2=Ain't That Fine
TTITLE3=Roll With My Baby
TTITLE4=Blues Before Sunrise
TTITLE5=Some Day
TTITLE6=The Ego Song
TTITLE7=You'll Never Miss The Water
TTITLE8=I've Had My Fun
TTITLE9=What Have I Done?
TTITLE10=The Snow Is Falling
TTITLE11=Hey Now
TTITLE12=The Midnight Hour
TTITLE13=Late In The Evening Blues
TTITLE14=Baby, Let Me Hold Your Hand
TTITLE15=Honey, Honey
EXTD=YEAR: 2004
EXTT0=
EXTT1=
EXTT2=
EXTT3=
EXTT4=
EXTT5=
EXTT6=
EXTT7=
EXTT8=
EXTT9=
EXTT10=
EXTT11=
EXTT12=
EXTT13=
EXTT14=
EXTT15=
PLAYORDER=
